<?xml version="1.0" standalone="no"?>
<!DOCTYPE svg PUBLIC "-//W3C//DTD SVG 20010904//EN"
 "http://www.w3.org/TR/2001/REC-SVG-20010904/DTD/svg10.dtd">
<svg version="1.0" xmlns="http://www.w3.org/2000/svg"
 width="2048.000000pt" height="2048.000000pt" viewBox="0 0 2048.000000 2048.000000"
 preserveAspectRatio="xMidYMid meet">
<metadata>
Created by potrace 1.16, written by Peter Selinger 2001-2019
</metadata>
<g transform="translate(0.000000,2048.000000) scale(0.100000,-0.100000)"
fill="#000000" stroke="none">
<path d="M10707 18234 c-2 -2 -68 -6 -147 -9 -80 -3 -147 -9 -150 -13 -3 -4
-16 -8 -30 -9 -81 -6 -140 -17 -140 -25 0 -5 -5 -6 -10 -3 -11 7 -72 -9 -178
-46 -30 -10 -60 -15 -67 -13 -7 3 -16 1 -20 -5 -3 -6 -21 -11 -40 -11 -19 0
-36 -4 -39 -9 -3 -4 -28 -11 -56 -15 -27 -4 -50 -11 -50 -16 0 -5 -20 -12 -45
-16 -25 -3 -48 -10 -51 -15 -3 -5 -18 -9 -35 -9 -16 0 -29 -4 -29 -10 0 -5
-13 -10 -29 -10 -16 0 -34 -6 -40 -14 -7 -8 -34 -22 -62 -32 -27 -10 -49 -22
-49 -26 0 -4 -11 -8 -25 -8 -14 0 -25 -4 -25 -8 0 -5 -28 -17 -61 -27 -34 -11
-67 -24 -73 -30 -14 -14 -167 -65 -194 -65 -11 0 -22 -4 -24 -10 -1 -5 -50
-17 -106 -27 -90 -14 -105 -20 -112 -39 -10 -24 -30 -41 -30 -25 0 14 -37 14
-45 1 -3 -5 -15 -10 -26 -10 -10 0 -19 -4 -19 -10 0 -5 -9 -10 -19 -10 -23 0
-101 -40 -101 -52 0 -4 -13 -8 -30 -8 -16 0 -30 -4 -30 -10 0 -5 -13 -10 -30
-10 -16 0 -30 -4 -30 -10 0 -5 -11 -10 -24 -10 -13 0 -29 -7 -36 -15 -7 -8
-23 -15 -36 -15 -13 0 -24 -4 -24 -8 0 -4 -20 -14 -45 -21 -25 -7 -45 -17 -45
-21 0 -4 -26 -12 -57 -16 -43 -7 -60 -14 -68 -30 -9 -17 -15 -20 -35 -12 -27
10 -70 -4 -70 -22 0 -5 -9 -10 -19 -10 -11 0 -26 -7 -35 -15 -8 -8 -24 -15
-36 -15 -17 0 -21 -5 -17 -20 4 -17 1 -19 -19 -14 -16 4 -31 0 -44 -11 -10 -9
-24 -14 -29 -10 -6 3 -14 -1 -17 -10 -4 -9 -24 -25 -45 -36 -26 -13 -39 -26
-39 -39 0 -17 4 -19 28 -14 15 4 29 10 32 13 3 3 12 6 20 6 8 0 19 9 25 20 11
22 55 29 55 8 0 -7 -11 -13 -24 -13 -17 0 -27 -8 -34 -28 -7 -21 -20 -30 -53
-39 -25 -7 -62 -30 -87 -53 -24 -22 -45 -40 -48 -40 -10 0 13 38 38 61 29 26
30 59 3 59 -15 0 -45 -27 -45 -39 0 -4 -18 -14 -40 -21 -46 -15 -50 -26 -15
-42 13 -6 22 -15 19 -20 -3 -4 -10 -6 -15 -2 -6 3 -13 -3 -16 -15 -8 -33 -28
-25 -28 11 0 42 -24 47 -60 14 -14 -14 -39 -28 -55 -31 -39 -9 -56 -30 -40
-50 11 -13 9 -15 -13 -15 -25 0 -37 -16 -37 -51 0 -11 7 -19 16 -19 14 0 14
-3 4 -15 -17 -20 -27 -19 -33 5 -6 24 -47 28 -47 5 0 -8 -5 -15 -11 -15 -12 0
-103 -90 -134 -133 -19 -25 -20 -26 -27 -7 -9 23 -38 27 -38 5 0 -9 -7 -18
-15 -21 -8 -4 -15 -18 -15 -33 0 -38 -14 -54 -39 -46 -12 4 -26 1 -34 -7 -8
-7 -26 -22 -40 -33 -26 -19 -37 -55 -17 -55 6 0 10 -4 10 -10 0 -5 -8 -10 -18
-10 -9 0 -32 -16 -50 -36 -26 -28 -31 -39 -20 -45 9 -6 3 -10 -19 -15 -34 -7
-46 -34 -16 -34 14 0 14 -3 -5 -20 -12 -11 -28 -20 -37 -20 -9 0 -19 -8 -22
-17 -4 -10 -15 -24 -25 -31 -12 -9 -17 -23 -16 -40 2 -20 -2 -27 -17 -30 -29
-6 -41 -20 -28 -33 14 -14 6 -39 -14 -39 -8 0 -11 -4 -8 -10 3 -5 -2 -10 -12
-10 -14 0 -15 -2 -4 -9 11 -7 9 -10 -8 -16 -11 -3 -21 -13 -21 -21 0 -8 -6
-14 -14 -14 -19 0 -33 -43 -17 -48 8 -3 6 -9 -6 -18 -15 -11 -16 -15 -4 -23
12 -7 8 -16 -20 -43 -38 -37 -59 -72 -59 -97 0 -10 -9 -27 -20 -39 -11 -12
-20 -29 -20 -39 0 -14 -2 -15 -9 -5 -5 8 -17 12 -26 10 -17 -3 -18 -4 -2 -20
21 -20 21 -22 1 -75 -9 -24 -23 -43 -30 -43 -17 0 -19 -27 -2 -32 16 -6 1 -58
-17 -58 -8 0 -16 -3 -16 -7 -2 -9 -9 -98 -10 -129 -1 -13 -12 -24 -30 -31 -21
-8 -29 -18 -29 -37 0 -13 5 -28 10 -31 17 -11 11 -37 -10 -42 -22 -6 -25 -14
-11 -29 5 -5 11 -27 15 -49 4 -27 3 -33 -3 -20 -8 18 -9 18 -16 3 -4 -11 -1
-24 9 -33 19 -19 20 -27 6 -41 -6 -6 -11 -28 -12 -50 0 -21 -5 -44 -10 -51 -5
-7 -7 -17 -3 -23 3 -5 2 -10 -2 -10 -15 0 -31 -56 -21 -74 6 -11 6 -22 -2 -31
-6 -7 -8 -25 -4 -40 5 -22 3 -27 -16 -32 -17 -4 -21 -11 -17 -29 2 -13 1 -24
-3 -24 -13 0 -29 -94 -18 -107 8 -10 6 -13 -6 -13 -9 0 -17 -6 -18 -12 0 -7
-2 -17 -2 -23 -1 -5 -4 -14 -8 -20 -13 -22 -50 -193 -53 -245 -2 -30 -9 -104
-15 -165 -16 -151 -14 -393 2 -413 8 -10 9 -13 1 -9 -15 9 -5 -195 11 -205 7
-4 10 -41 9 -98 -1 -49 2 -90 6 -90 5 0 11 -38 12 -85 2 -47 9 -89 14 -93 6
-4 11 -23 12 -42 6 -108 8 -120 20 -120 8 0 13 -13 13 -35 0 -19 5 -35 10 -35
6 0 10 -24 10 -54 0 -30 4 -56 9 -58 6 -1 11 -27 12 -56 2 -29 8 -57 15 -63 7
-6 15 -40 19 -77 7 -82 26 -172 35 -172 8 0 26 -86 35 -165 6 -59 12 -80 30
-120 8 -16 21 -57 30 -90 10 -33 22 -70 27 -82 6 -11 7 -26 3 -32 -4 -7 -1
-19 6 -27 10 -13 10 -17 0 -23 -11 -7 -11 -13 0 -32 7 -13 13 -42 14 -64 2
-48 13 -85 26 -85 5 0 9 -15 9 -34 0 -19 6 -37 13 -39 9 -4 9 -8 -2 -15 -11
-8 -12 -19 -4 -53 19 -78 16 -84 -47 -79 -14 1 -30 7 -35 15 -8 9 -16 10 -28
3 -10 -5 -36 -11 -58 -13 -46 -4 -139 -59 -139 -82 0 -11 -7 -14 -21 -10 -15
4 -19 2 -15 -9 3 -8 -1 -14 -9 -14 -8 0 -15 -8 -15 -18 0 -10 -5 -23 -12 -30
-7 -7 -8 -12 -4 -12 5 0 3 -7 -4 -15 -7 -8 -9 -15 -5 -15 4 0 3 -6 -3 -12 -5
-7 -13 -32 -17 -56 -4 -25 -11 -40 -17 -36 -7 5 -9 -4 -6 -25 3 -18 1 -34 -4
-37 -4 -3 -8 -10 -8 -15 0 -6 5 -7 11 -3 6 3 4 -8 -5 -24 -19 -37 -20 -46 -4
-36 8 5 9 2 3 -12 -10 -21 -13 -113 -5 -129 3 -5 6 -19 6 -30 1 -11 5 -45 10
-75 4 -30 7 -68 6 -83 -1 -18 3 -25 10 -21 8 5 9 -5 6 -34 -3 -22 -3 -43 0
-47 3 -3 7 -13 8 -23 3 -32 13 -74 18 -80 3 -3 1 -12 -6 -19 -9 -11 -9 -16 2
-23 17 -11 28 -170 11 -170 -6 0 -11 -5 -11 -11 0 -5 5 -7 11 -3 8 5 10 -1 7
-20 -3 -14 -2 -29 3 -31 4 -3 5 -21 2 -40 -4 -24 -2 -35 7 -35 9 0 11 -9 6
-30 -3 -17 -2 -29 2 -26 8 5 6 -76 -3 -111 -4 -17 -1 -23 10 -23 12 0 15 -6
10 -19 -3 -11 -1 -22 5 -26 6 -3 8 -10 5 -15 -3 -5 -1 -11 4 -14 5 -3 7 -15 4
-26 -4 -13 1 -26 13 -35 15 -11 16 -17 6 -23 -10 -7 -8 -14 8 -33 38 -47 39
-48 46 -103 2 -16 13 -38 24 -49 12 -10 23 -32 27 -48 3 -16 9 -27 13 -24 5 3
12 -8 18 -23 5 -15 24 -42 41 -60 23 -23 31 -37 26 -52 -4 -13 -2 -20 6 -20
16 0 70 -60 64 -71 -3 -4 11 -24 30 -45 19 -20 35 -41 35 -47 0 -5 8 -17 18
-26 18 -15 34 -45 37 -66 0 -5 6 -9 12 -8 7 2 15 -6 18 -17 4 -11 10 -20 15
-20 4 0 10 -10 14 -23 3 -13 21 -40 41 -60 19 -20 35 -41 35 -47 0 -5 3 -10 8
-10 4 0 16 -13 27 -29 10 -16 23 -27 27 -25 4 3 8 0 8 -6 0 -13 115 -130 128
-130 4 0 17 -8 28 -19 44 -41 78 -45 125 -16 21 13 33 51 19 60 -6 3 -8 11 -5
16 4 5 2 9 -2 9 -8 0 -37 24 -103 84 -14 12 -41 42 -60 66 -19 23 -41 49 -47
56 -7 7 -13 17 -13 23 0 5 -5 13 -12 17 -7 5 -8 2 -3 -7 5 -8 4 -10 0 -6 -5 4
-10 15 -11 23 -1 9 -12 22 -23 30 -11 8 -18 21 -15 29 4 8 1 15 -5 15 -6 0
-16 11 -21 25 -5 14 -14 25 -19 25 -4 0 -11 13 -14 30 -4 16 -16 39 -27 50
-11 11 -20 22 -20 25 0 3 -6 18 -14 34 -9 16 -12 31 -9 35 4 3 -1 6 -10 6 -10
0 -14 5 -11 15 4 8 -1 17 -10 21 -9 3 -16 15 -16 26 0 10 -4 16 -10 13 -6 -4
-9 4 -7 17 1 14 -3 22 -10 21 -8 -2 -10 4 -6 14 4 10 2 14 -5 9 -6 -3 -13 3
-17 14 -3 11 -11 20 -16 20 -5 0 -9 7 -9 15 0 8 -4 15 -8 15 -4 0 -8 16 -9 35
-1 26 -9 41 -32 61 -28 23 -45 64 -21 49 6 -3 10 1 10 9 0 8 -9 20 -20 26 -11
6 -20 17 -20 25 0 8 -9 30 -20 50 -11 19 -17 35 -14 35 4 0 2 6 -3 13 -6 6 -8
24 -6 40 2 18 0 26 -9 25 -9 -2 -12 10 -11 45 2 30 -1 47 -9 47 -6 0 -9 3 -6
6 4 3 0 22 -9 42 -13 32 -13 37 1 48 16 12 12 44 -5 44 -6 0 -5 8 1 19 7 14 7
22 -1 27 -7 4 -9 24 -5 56 5 34 4 48 -4 43 -5 -3 -10 1 -10 9 0 9 5 16 10 16
14 0 12 28 -2 32 -12 4 -27 117 -31 229 -1 25 -8 53 -14 61 -7 8 -10 17 -7 21
3 3 1 14 -5 26 -7 13 -8 22 -1 26 14 9 12 21 -5 39 -9 8 -17 37 -19 63 -3 26
-9 62 -14 79 -5 17 -6 37 -2 44 4 7 5 28 3 47 -4 29 0 39 29 67 40 39 70 56
115 66 29 7 38 3 70 -26 20 -19 40 -34 44 -34 4 0 10 -14 14 -30 4 -17 15 -35
25 -40 10 -5 21 -21 24 -34 3 -14 18 -37 32 -51 14 -14 22 -25 17 -25 -4 0 -2
-5 5 -12 7 -7 12 -22 12 -34 0 -12 7 -27 15 -34 7 -6 17 -32 21 -56 3 -24 10
-44 15 -44 5 0 9 -11 9 -24 0 -14 5 -28 10 -31 6 -3 10 -14 10 -23 0 -10 9
-36 21 -57 21 -41 24 -57 35 -182 4 -40 11 -73 17 -73 5 0 6 -11 3 -24 -4 -15
-1 -26 6 -28 6 -2 11 -23 11 -46 0 -23 4 -42 9 -42 4 0 8 -11 8 -25 0 -14 3
-25 8 -25 4 0 8 -12 9 -27 4 -65 12 -108 22 -111 6 -2 11 -17 11 -32 0 -16 4
-31 8 -34 5 -3 9 -22 10 -42 1 -21 7 -41 13 -45 6 -4 9 -11 6 -17 -4 -5 5 -33
19 -61 13 -29 22 -56 18 -62 -3 -5 -1 -15 4 -22 9 -12 22 -73 23 -112 0 -10 5
-25 12 -33 11 -13 17 -56 17 -109 0 -13 4 -23 8 -23 5 0 17 -35 26 -77 10 -43
22 -92 27 -109 5 -17 9 -44 9 -62 0 -17 4 -33 9 -36 5 -3 11 -23 14 -43 3 -21
8 -50 11 -66 3 -15 7 -37 10 -50 2 -12 9 -44 16 -72 6 -27 14 -66 17 -85 2
-19 10 -48 18 -65 7 -16 16 -55 19 -85 4 -30 11 -57 16 -60 5 -3 10 -26 12
-50 2 -25 6 -47 10 -50 6 -5 16 -61 20 -110 0 -8 4 -19 8 -25 7 -10 23 -62 25
-80 0 -5 4 -16 8 -22 8 -12 17 -59 20 -95 1 -10 5 -18 10 -18 5 0 6 -7 3 -16
-3 -9 1 -25 9 -37 8 -12 12 -31 9 -44 -4 -14 -2 -23 5 -23 6 0 11 -9 11 -20 0
-11 5 -20 11 -20 7 0 10 -12 7 -30 -3 -20 0 -30 9 -30 7 0 13 -11 13 -24 0
-13 8 -34 19 -47 10 -13 16 -30 14 -36 -3 -7 0 -13 6 -13 6 0 8 -6 5 -14 -3
-8 3 -19 15 -26 14 -7 21 -21 21 -40 0 -17 5 -30 10 -30 6 0 10 -8 10 -18 0
-9 9 -23 20 -30 11 -7 20 -23 20 -37 0 -14 8 -29 20 -35 11 -6 17 -17 14 -24
-3 -8 3 -19 14 -25 11 -6 26 -27 32 -47 7 -19 25 -49 41 -65 17 -17 32 -43 36
-59 3 -16 18 -39 34 -51 16 -12 29 -28 29 -35 0 -7 12 -26 28 -42 39 -42 73
-88 89 -121 3 -7 17 -25 29 -39 13 -14 24 -28 24 -32 0 -5 27 -35 60 -69 33
-34 60 -66 60 -71 0 -6 7 -10 15 -10 8 0 15 -4 15 -10 0 -5 26 -37 58 -69 107
-111 152 -161 152 -171 0 -5 4 -10 9 -10 5 0 13 -9 16 -20 3 -11 11 -20 17
-20 5 0 36 -27 68 -59 32 -33 70 -67 84 -76 14 -9 28 -25 31 -36 4 -10 13 -19
21 -19 8 0 14 -4 14 -10 0 -5 6 -10 13 -10 7 0 21 -11 31 -25 10 -14 25 -25
32 -25 8 0 11 -6 8 -15 -4 -10 0 -15 12 -15 11 0 30 -12 43 -25 13 -14 27 -25
33 -25 5 0 7 -4 3 -9 -3 -5 3 -12 13 -15 10 -4 34 -22 53 -41 18 -19 39 -35
45 -35 6 0 19 -9 29 -20 10 -11 38 -31 61 -45 24 -14 44 -29 44 -34 0 -4 11
-13 24 -19 24 -11 51 -32 107 -84 16 -14 43 -29 59 -33 17 -4 30 -11 30 -16 0
-5 7 -9 15 -9 8 0 19 -9 25 -20 6 -11 25 -27 43 -35 57 -27 77 -42 69 -49 -4
-5 2 -6 13 -4 11 2 28 -3 38 -12 10 -8 19 -13 20 -11 1 2 18 -6 37 -17 80 -48
257 -132 277 -132 12 0 30 -8 40 -18 19 -20 49 -35 73 -37 31 -2 70 -18 70
-27 0 -6 9 -8 21 -5 12 3 33 1 48 -5 33 -14 109 -29 140 -28 13 0 29 -4 36
-10 23 -19 471 -30 705 -16 182 10 204 13 208 25 2 6 8 9 13 6 4 -3 34 1 65 9
32 8 61 13 64 11 4 -3 25 4 46 14 35 17 67 26 177 48 15 3 27 10 27 15 0 6 11
7 24 4 15 -4 30 -1 38 7 7 8 26 17 41 21 15 3 27 11 27 17 0 6 4 8 9 4 5 -3
16 2 24 10 9 8 27 15 40 15 14 0 30 7 38 16 8 9 21 13 35 10 17 -5 26 -1 34
14 6 11 20 20 30 20 11 0 20 4 20 10 0 5 6 7 14 4 8 -3 19 4 26 16 7 13 18 19
26 16 8 -3 20 3 26 14 7 11 21 20 30 20 10 0 18 5 18 10 0 6 8 14 17 17 9 4
24 13 32 20 43 37 80 63 90 63 13 0 60 32 105 73 17 15 34 27 39 27 5 0 25 13
44 30 18 17 40 30 48 30 8 0 24 13 36 30 12 16 35 32 52 36 18 4 36 17 46 35
10 18 24 29 39 29 12 0 22 4 22 9 0 6 12 16 28 24 15 7 26 18 25 25 -2 6 4 9
12 6 9 -4 19 4 26 20 7 14 16 26 20 26 4 0 46 38 93 85 46 47 89 85 95 85 5 0
13 9 16 20 3 11 12 20 18 20 6 0 35 25 63 55 29 30 56 55 62 55 5 0 15 14 22
30 7 17 22 33 35 36 14 3 26 16 30 32 9 36 23 52 46 52 11 0 19 4 19 9 0 5 11
19 25 32 13 13 25 27 25 32 0 4 23 29 50 56 28 27 50 52 50 56 0 4 12 19 28
34 36 35 82 89 82 97 0 9 53 78 67 87 7 4 34 40 60 80 26 39 54 78 61 86 16
16 36 62 33 75 -1 4 4 13 12 20 8 6 20 27 27 46 8 19 20 39 27 43 7 4 13 16
13 26 0 10 8 33 17 52 10 19 18 49 20 67 1 19 6 39 11 45 5 7 9 21 9 32 1 11
11 42 22 68 12 27 21 60 21 73 0 13 5 24 11 24 6 0 8 7 5 16 -4 10 1 25 10 35
9 10 13 22 10 28 -4 6 -2 21 5 33 12 22 28 77 33 110 1 10 5 21 9 24 4 4 7 21
7 39 0 18 9 41 21 54 11 12 18 28 15 36 -3 8 7 54 21 102 30 105 53 208 53
243 0 15 4 30 10 36 5 5 11 30 12 55 2 26 8 53 14 60 5 8 11 38 13 68 1 30 6
62 10 70 5 9 9 42 10 74 1 31 6 69 11 83 6 14 10 36 10 50 0 13 5 24 11 24 7
0 9 10 5 24 -3 14 -2 27 3 31 5 3 9 13 9 23 -1 32 12 103 22 122 6 11 9 23 9
27 -1 4 1 16 6 26 4 10 3 23 -2 28 -7 7 -6 24 4 50 7 22 11 44 8 49 -3 5 -1
11 5 15 5 3 7 19 3 35 -4 20 -1 30 6 30 7 0 11 10 10 23 -2 23 10 96 19 111 3
5 6 25 8 44 2 20 7 38 11 41 4 3 10 30 11 60 2 30 9 66 14 80 6 14 10 34 9 44
-1 10 2 24 7 30 5 7 12 30 15 52 4 22 13 74 22 115 25 121 38 207 51 330 5 52
14 108 34 224 5 26 17 60 27 75 10 14 16 30 15 36 -6 19 34 150 61 200 6 11
21 40 34 65 40 76 52 94 66 105 8 5 16 17 19 25 3 11 19 15 56 15 29 0 52 -4
52 -9 0 -4 7 -6 15 -2 8 3 15 1 15 -5 0 -6 7 -9 15 -5 15 5 28 -5 60 -50 11
-15 26 -33 33 -40 6 -7 12 -22 12 -33 0 -11 5 -23 10 -26 8 -5 7 -11 -1 -21
-7 -8 -7 -14 -1 -14 5 0 10 -24 9 -52 0 -29 1 -62 3 -73 4 -36 -10 -138 -21
-151 -6 -7 -8 -18 -4 -24 3 -5 2 -10 -4 -10 -5 0 -10 -8 -10 -17 -1 -10 -3
-34 -6 -53 -3 -19 -7 -46 -9 -60 -5 -39 -10 -54 -20 -62 -5 -3 -11 -24 -13
-45 -2 -21 -5 -46 -6 -55 -1 -10 -6 -18 -12 -18 -5 0 -4 -4 4 -9 10 -6 11 -13
2 -29 -7 -14 -8 -29 -1 -46 5 -15 6 -26 0 -26 -10 0 -8 -75 3 -86 11 -11 9
-21 -10 -39 -12 -13 -13 -19 -4 -24 14 -9 11 -42 -4 -53 -6 -5 -6 -11 2 -16
13 -8 26 -92 15 -92 -4 0 -8 -33 -9 -72 -5 -160 -8 -198 -16 -198 -4 0 -5 -4
-2 -10 3 -5 1 -10 -6 -10 -7 0 -10 -3 -7 -6 4 -3 2 -20 -3 -37 -6 -18 -12 -43
-15 -57 -8 -42 -13 -52 -26 -44 -8 5 -9 2 -5 -9 3 -9 0 -20 -7 -24 -7 -5 -21
-24 -31 -43 -10 -19 -28 -45 -41 -57 -13 -12 -24 -26 -24 -32 0 -5 -9 -13 -20
-16 -11 -3 -20 -10 -20 -15 0 -5 -16 -26 -36 -47 -20 -21 -33 -32 -29 -24 6
10 4 12 -4 7 -7 -5 -10 -14 -8 -20 3 -7 -8 -25 -24 -40 -16 -15 -27 -31 -25
-35 3 -4 -8 -15 -23 -26 -16 -10 -34 -33 -40 -52 -7 -18 -19 -33 -28 -33 -10
0 -13 -6 -9 -17 4 -10 4 -14 0 -11 -10 10 -54 -47 -54 -70 0 -11 -7 -22 -15
-26 -8 -3 -20 -17 -25 -31 -5 -14 -13 -25 -18 -25 -10 0 -12 -24 -6 -61 3 -15
15 -31 30 -38 31 -14 74 -14 74 -1 0 6 10 10 22 10 12 0 18 3 15 7 -4 3 2 12
13 20 11 8 20 21 20 29 0 8 5 12 10 9 6 -3 10 0 10 7 0 7 14 24 30 37 16 13
27 27 24 32 -6 11 44 59 62 59 8 0 14 9 14 19 0 10 7 21 15 25 8 3 15 12 15
21 0 8 17 32 38 53 20 21 43 48 51 60 8 11 18 19 23 16 4 -3 8 -1 8 5 0 5 6
16 13 23 22 23 72 93 70 98 -3 9 19 30 27 25 5 -3 13 9 19 25 5 17 15 30 20
30 6 0 11 7 11 15 0 8 3 15 8 15 9 0 42 74 42 94 0 7 8 28 17 47 9 19 16 46
14 61 -1 14 2 29 8 32 5 3 8 26 6 51 -2 34 2 48 14 55 10 6 12 13 6 17 -13 11
-18 36 -5 28 6 -4 9 10 6 39 -2 26 0 46 5 46 4 0 2 15 -6 33 -7 18 -10 39 -6
46 5 7 7 62 6 122 -1 60 1 109 6 109 5 0 9 7 9 15 0 8 -4 15 -10 15 -5 0 -10
7 -10 15 0 8 4 15 9 15 6 0 8 23 7 50 -2 28 1 50 6 50 5 0 6 9 3 20 -4 11 -2
20 4 20 6 0 8 6 5 14 -3 8 6 43 20 78 14 34 30 86 36 113 7 28 15 59 20 70 29
71 37 188 31 483 -1 32 -16 71 -31 82 -4 3 -18 25 -30 50 -47 94 -171 185
-285 210 -46 10 -147 6 -166 -6 -9 -5 -13 11 -9 31 9 42 9 55 1 55 -5 0 -3 32
5 71 7 40 11 75 9 79 -3 4 4 18 15 30 11 13 20 33 20 46 0 14 8 25 20 29 15 5
19 12 15 25 -3 11 -3 35 0 54 5 25 11 33 22 29 12 -5 14 -1 9 15 -4 11 -2 23
4 27 5 3 10 15 10 26 0 10 4 19 8 19 4 0 9 12 10 27 1 15 7 32 12 37 6 6 10
18 10 27 0 9 6 22 14 28 19 16 47 106 40 125 -3 9 -2 16 4 16 5 0 12 24 15 54
5 47 38 131 59 146 3 3 10 34 14 70 3 36 10 70 14 75 4 6 11 25 15 43 3 17 11
32 17 32 6 0 7 7 4 16 -4 9 -1 23 5 30 11 14 29 73 33 109 1 11 8 31 15 45 15
26 48 187 49 235 0 17 4 45 8 64 5 23 3 36 -7 42 -8 5 -9 9 -3 9 7 0 12 10 12
23 0 12 5 40 11 62 13 45 29 233 35 405 3 63 6 133 7 155 4 65 -13 219 -25
227 -7 5 -4 8 7 8 19 0 21 15 6 80 -5 25 -11 77 -14 115 -3 63 -45 248 -59
262 -3 3 -1 14 5 24 5 11 6 19 2 19 -4 0 -8 26 -8 58 -1 33 -12 93 -29 144
-28 89 -45 167 -50 225 -1 18 -10 41 -19 50 -8 10 -24 52 -36 93 -28 106 -51
170 -62 170 -5 0 -9 13 -9 28 0 16 -7 37 -15 48 -8 10 -15 29 -15 42 0 12 -5
22 -11 22 -5 0 -7 5 -4 11 4 5 0 18 -9 28 -9 9 -25 53 -36 97 -10 43 -24 80
-30 82 -5 2 -10 12 -10 23 0 24 -32 99 -42 99 -5 0 -8 9 -8 20 0 11 -16 43
-35 70 -19 27 -45 72 -57 100 -12 27 -27 50 -33 50 -7 0 -22 21 -35 46 -13 25
-32 50 -42 55 -10 5 -18 18 -18 29 0 11 -11 27 -25 36 -14 9 -25 21 -25 28 0
6 -18 31 -40 56 -65 74 -68 78 -80 99 -6 12 -20 21 -30 21 -13 0 -20 7 -20 20
0 23 -29 60 -47 60 -7 0 -22 20 -33 45 -11 25 -25 45 -30 45 -12 0 -80 65 -80
76 0 5 -19 26 -42 46 -24 21 -78 71 -122 113 -43 41 -87 75 -97 75 -11 0 -24
10 -28 23 -5 12 -23 31 -40 42 -17 11 -31 23 -31 28 0 4 -11 7 -25 7 -14 0
-25 6 -25 13 0 8 -10 19 -22 25 -39 20 -64 37 -104 71 -14 12 -17 12 -25 0 -7
-11 -9 -11 -9 2 0 9 -11 21 -25 27 -14 6 -25 16 -25 20 0 5 -20 17 -45 26 -25
10 -45 22 -45 27 0 5 -17 17 -37 27 -20 9 -59 39 -86 65 -40 39 -55 47 -73 43
-19 -5 -24 -2 -24 13 0 16 -9 21 -45 27 -28 4 -45 11 -45 20 0 17 -17 18 -23
2 -4 -9 -6 -8 -6 3 -1 8 -17 21 -36 29 -19 8 -35 17 -35 22 0 14 -38 8 -44 -7
-10 -26 -29 -17 -22 10 5 18 2 25 -8 25 -8 0 -32 12 -53 26 -21 14 -45 23 -54
21 -9 -3 -32 9 -50 25 -19 16 -42 27 -51 24 -10 -2 -18 1 -18 7 0 7 -11 17
-25 24 -14 6 -25 7 -25 2 0 -5 -4 -9 -10 -9 -5 0 -10 7 -10 15 0 9 -12 21 -27
28 -16 6 -32 17 -36 24 -4 7 -17 13 -28 13 -11 0 -31 7 -44 16 -14 9 -31 14
-38 11 -8 -3 -21 3 -29 13 -9 9 -49 27 -89 40 -41 12 -76 25 -79 29 -7 10
-182 61 -208 61 -11 0 -27 7 -36 15 -8 9 -19 15 -23 14 -4 -1 -17 1 -28 5 -43
17 -72 25 -120 35 -27 6 -79 17 -114 26 -35 8 -68 12 -73 9 -5 -3 -14 -2 -21
4 -16 12 -150 36 -168 30 -8 -3 -20 2 -28 10 -10 9 -26 12 -48 9 -18 -3 -33
-3 -33 1 0 7 -466 13 -473 6z m1899 -1789 c14 -14 22 -30 19 -35 -4 -6 -1 -9
6 -8 7 2 13 -5 14 -14 0 -10 4 -18 8 -17 14 0 51 -61 87 -143 18 -43 44 -88
57 -100 25 -23 53 -32 53 -17 0 5 5 9 11 9 5 0 7 -6 3 -12 -4 -7 2 -5 13 5 11
9 27 17 36 17 13 0 15 8 12 38 -4 34 -22 102 -40 146 -6 13 -5 17 2 13 6 -4
13 -2 15 5 3 8 15 2 34 -15 16 -15 33 -27 37 -27 5 0 31 -23 59 -52 35 -36 52
-48 57 -39 6 8 14 1 25 -23 9 -20 23 -36 31 -36 7 0 17 -9 20 -21 4 -11 20
-25 36 -31 16 -5 29 -16 29 -22 0 -7 11 -19 25 -26 14 -7 25 -22 25 -32 0 -10
5 -18 10 -18 6 0 10 -7 10 -16 0 -11 6 -14 21 -9 19 6 21 4 15 -19 -3 -14 -3
-26 1 -26 5 0 21 -11 37 -25 16 -14 35 -25 42 -25 6 0 16 -12 22 -28 5 -16 25
-36 46 -47 20 -11 36 -26 36 -33 0 -7 16 -28 35 -46 19 -19 35 -41 35 -51 0
-10 5 -15 13 -12 22 8 95 -83 139 -173 7 -14 16 -27 19 -30 4 -3 8 -14 10 -24
2 -10 13 -24 24 -30 34 -19 51 -57 81 -176 9 -36 29 -109 45 -164 16 -54 29
-114 29 -132 0 -19 5 -34 10 -34 6 0 8 -11 4 -25 -4 -17 -1 -32 11 -45 10 -11
14 -26 11 -38 -4 -11 -1 -26 6 -33 13 -14 16 -38 17 -141 1 -81 -3 -132 -12
-145 -4 -6 -5 -28 -2 -49 3 -29 2 -35 -7 -26 -16 16 -28 15 -28 -3 0 -8 6 -15
13 -15 7 0 12 -15 13 -40 0 -22 -3 -40 -7 -40 -12 0 -17 -53 -8 -78 6 -17 5
-30 -6 -45 -8 -12 -15 -32 -15 -44 0 -16 -4 -21 -15 -17 -9 4 -15 0 -15 -10 0
-9 4 -16 9 -16 17 0 5 -75 -19 -117 -13 -24 -27 -43 -31 -43 -4 0 -5 -10 -2
-21 4 -14 0 -25 -11 -31 -10 -6 -16 -22 -16 -48 0 -26 -7 -45 -19 -57 -11 -10
-22 -36 -25 -58 -4 -22 -11 -44 -16 -49 -4 -4 -6 -14 -4 -21 3 -7 1 -16 -5
-20 -14 -8 -14 -45 -1 -45 12 0 2 -29 -17 -52 -8 -9 -12 -21 -9 -26 3 -6 -1
-12 -9 -16 -20 -7 -22 -152 -2 -159 9 -4 8 -8 -3 -16 -9 -7 -10 -11 -3 -11 17
0 26 -36 28 -110 1 -40 9 -81 20 -105 15 -33 25 -79 26 -130 1 -24 -13 -92
-24 -113 -8 -17 -8 -25 1 -34 16 -16 15 -36 0 -35 -32 1 -48 -4 -48 -14 0 -7
9 -9 23 -5 30 7 53 -19 62 -73 4 -22 16 -60 27 -83 10 -24 29 -63 40 -88 12
-25 28 -58 36 -74 8 -16 16 -60 18 -98 2 -37 5 -72 8 -76 3 -5 1 -37 -4 -72
-6 -43 -6 -68 1 -77 6 -6 7 -18 3 -24 -9 -15 -12 -70 -5 -84 15 -25 15 -279 1
-315 -1 -3 -2 -9 -1 -13 1 -4 -4 -17 -10 -29 -16 -30 -21 -148 -6 -148 8 0 7
-4 -2 -9 -9 -6 -16 -33 -19 -72 -4 -54 -3 -61 12 -56 10 4 16 1 16 -7 0 -7 14
-16 30 -19 27 -6 30 -10 30 -47 0 -23 4 -39 9 -35 5 3 12 1 16 -5 3 -5 2 -10
-3 -10 -8 0 -8 -59 -2 -220 2 -36 7 -71 13 -77 6 -9 5 -18 -3 -28 -9 -10 -10
-32 -4 -77 4 -35 8 -72 9 -83 1 -11 7 -30 14 -42 9 -18 9 -23 -1 -23 -10 0
-10 -2 0 -9 9 -5 12 -20 8 -47 -5 -29 -4 -34 3 -19 9 19 10 19 10 -2 1 -13 -3
-23 -9 -23 -5 0 -10 -9 -10 -21 0 -11 4 -17 10 -14 6 4 7 -5 4 -23 -4 -19 -1
-34 10 -45 12 -12 13 -17 3 -21 -6 -3 0 -5 14 -3 21 3 25 0 21 -15 -2 -10 -8
-21 -13 -24 -5 -2 -6 -17 -3 -32 3 -15 -2 -44 -12 -67 -10 -22 -19 -51 -20
-65 -3 -27 -20 -119 -30 -160 -3 -14 -7 -37 -8 -52 0 -16 -4 -28 -7 -28 -3 0
-11 -33 -18 -72 -7 -40 -19 -93 -27 -117 -8 -25 -14 -58 -14 -73 0 -16 -5 -39
-12 -51 -6 -12 -13 -47 -15 -77 -2 -30 -8 -66 -13 -80 -5 -14 -14 -65 -20
-114 -6 -49 -17 -101 -25 -116 -8 -15 -14 -41 -14 -56 0 -51 -13 -144 -21
-144 -4 0 -10 -25 -13 -56 -3 -30 -10 -61 -15 -67 -5 -7 -9 -33 -10 -60 0 -26
-8 -70 -17 -97 -9 -27 -14 -53 -12 -57 3 -5 0 -19 -6 -33 -6 -14 -12 -34 -13
-45 -14 -97 -26 -150 -33 -154 -5 -4 -12 -28 -16 -56 -4 -27 -14 -65 -21 -84
-8 -18 -14 -44 -14 -57 0 -13 -4 -24 -10 -24 -5 0 -10 -16 -10 -35 0 -19 -4
-35 -10 -35 -5 0 -10 -10 -10 -23 0 -12 -7 -33 -16 -45 -10 -15 -12 -27 -6
-39 7 -11 6 -21 -4 -31 -8 -7 -14 -22 -14 -33 0 -10 -5 -19 -11 -19 -6 0 -8
-7 -5 -16 4 -9 1 -23 -5 -30 -6 -8 -9 -21 -5 -29 3 -8 1 -15 -4 -15 -5 0 -9
-8 -9 -17 1 -35 -56 -187 -79 -215 -8 -9 -11 -22 -7 -27 3 -6 1 -11 -4 -11 -6
0 -11 -7 -11 -16 0 -9 -6 -30 -14 -47 -8 -18 -18 -45 -23 -62 -5 -16 -19 -34
-31 -40 -12 -5 -20 -15 -18 -21 3 -7 -4 -21 -15 -32 -10 -12 -19 -28 -19 -37
0 -9 -7 -18 -15 -21 -8 -3 -17 -14 -20 -25 -4 -10 -13 -19 -21 -19 -8 0 -14
-8 -14 -19 0 -10 -16 -32 -35 -48 -19 -17 -35 -35 -35 -42 0 -6 -4 -11 -10
-11 -5 0 -10 -9 -10 -20 0 -11 -7 -20 -15 -20 -9 0 -20 -10 -25 -22 -5 -13
-34 -50 -64 -82 -31 -33 -56 -62 -56 -65 0 -3 -13 -12 -30 -19 -17 -8 -30 -21
-30 -31 0 -19 -31 -61 -46 -61 -5 -1 -25 -21 -44 -45 -19 -25 -38 -45 -42 -45
-10 0 -68 -60 -68 -71 0 -5 -5 -8 -12 -7 -7 2 -12 -3 -13 -11 0 -8 -9 -19 -20
-25 -11 -6 -25 -19 -32 -28 -7 -9 -29 -26 -48 -38 -19 -12 -35 -27 -35 -34 0
-14 -72 -66 -90 -66 -6 0 -9 -4 -6 -9 3 -4 -6 -13 -19 -19 -14 -7 -25 -18 -25
-25 0 -8 -18 -20 -41 -27 -41 -14 -83 -43 -73 -52 3 -3 -7 -8 -21 -12 -14 -4
-25 -11 -25 -16 0 -6 -6 -10 -14 -10 -8 0 -23 -13 -32 -29 -9 -16 -23 -27 -29
-24 -7 2 -22 -8 -33 -22 -12 -15 -25 -24 -30 -21 -6 3 -12 -4 -15 -15 -4 -14
-11 -20 -21 -16 -8 3 -18 2 -21 -3 -4 -6 -1 -10 5 -10 6 0 8 -5 5 -10 -4 -6
-10 -8 -15 -5 -13 8 -41 -6 -37 -19 5 -14 -22 -35 -45 -36 -10 0 -18 -5 -18
-11 0 -5 -4 -8 -10 -4 -15 9 -50 -18 -50 -38 0 -11 -9 -21 -20 -24 -11 -3 -20
-9 -20 -14 0 -5 -8 -9 -18 -9 -11 0 -32 -11 -48 -25 -16 -14 -37 -25 -46 -25
-10 0 -18 -4 -18 -10 0 -5 -7 -10 -15 -10 -8 0 -15 -4 -15 -10 0 -5 -11 -10
-25 -10 -14 0 -25 -4 -25 -10 0 -5 -9 -10 -20 -10 -11 0 -20 -4 -20 -10 0 -5
-10 -10 -23 -10 -13 0 -32 -7 -43 -15 -10 -8 -29 -15 -41 -15 -13 0 -23 -4
-23 -10 0 -5 -8 -10 -18 -10 -10 0 -26 -6 -37 -13 -11 -8 -41 -22 -67 -32 -27
-10 -48 -22 -48 -26 0 -5 -11 -9 -25 -9 -14 0 -25 -4 -25 -10 0 -5 -6 -7 -14
-4 -8 3 -24 -4 -35 -15 -11 -11 -27 -18 -36 -15 -8 4 -15 2 -15 -2 0 -5 -20
-10 -45 -11 -25 -1 -59 -8 -76 -17 -18 -9 -42 -13 -60 -9 -17 3 -35 0 -44 -7
-9 -7 -44 -14 -78 -16 -34 -2 -98 -7 -142 -10 -44 -3 -122 -7 -173 -9 -51 -1
-95 -5 -99 -8 -10 -11 -51 -8 -58 4 -4 6 -14 7 -24 4 -23 -9 -163 -15 -175 -7
-6 3 -29 7 -51 9 -22 2 -58 5 -80 7 -22 3 -59 7 -82 8 -23 2 -45 7 -48 10 -4
3 -20 4 -36 1 -17 -2 -36 0 -42 6 -7 5 -24 11 -37 13 -14 2 -31 7 -38 11 -6 5
-16 6 -21 2 -5 -3 -16 2 -24 10 -9 8 -23 15 -32 15 -10 0 -34 8 -54 19 -82 42
-168 81 -179 81 -7 0 -12 4 -12 9 0 5 -13 14 -29 21 -16 6 -37 19 -48 28 -24
22 -60 42 -73 42 -5 0 -32 16 -59 35 -26 19 -55 35 -64 35 -9 0 -19 9 -22 20
-3 11 -13 20 -21 20 -8 0 -35 20 -60 45 -24 25 -51 45 -59 45 -8 0 -15 4 -15
9 0 5 -20 21 -45 35 -25 15 -45 33 -45 40 0 8 -13 19 -30 26 -16 7 -30 16 -30
21 0 5 -6 9 -14 9 -8 0 -25 12 -38 28 -13 15 -42 39 -66 55 -23 15 -42 32 -42
37 0 6 -7 10 -15 10 -9 0 -18 8 -22 17 -6 19 -38 53 -48 53 -3 0 -24 18 -46
40 -22 22 -45 40 -50 40 -5 0 -9 7 -9 15 0 8 -10 20 -22 26 -13 7 -55 45 -94
86 -39 40 -76 73 -83 73 -6 0 -11 4 -11 10 0 8 -28 41 -118 137 -12 13 -22 28
-22 33 0 5 -9 14 -20 20 -11 6 -20 16 -20 21 0 6 -11 20 -25 31 -14 11 -25 26
-25 34 0 8 -4 14 -10 14 -15 0 -50 33 -50 47 0 7 -7 13 -15 13 -8 0 -15 4 -15
8 0 5 -9 20 -21 33 -41 48 -109 144 -109 156 0 6 -15 27 -32 47 -49 52 -128
165 -128 183 0 4 -9 19 -20 33 -11 14 -20 33 -20 43 0 9 -4 17 -9 17 -5 0 -11
12 -13 28 -2 15 -8 26 -15 24 -7 -1 -13 5 -13 13 0 18 -42 109 -52 113 -5 2
-8 10 -8 18 0 8 -11 32 -25 54 -14 22 -25 46 -25 54 0 8 -7 27 -14 43 -17 31
-29 63 -31 78 -1 6 -5 18 -8 28 -4 9 -10 25 -14 35 -3 9 -7 22 -7 27 -1 6 -7
21 -13 35 -7 14 -21 59 -33 100 -12 41 -25 89 -31 106 -5 17 -9 39 -9 51 0 11
-3 23 -7 26 -3 4 -7 17 -8 30 -1 12 -10 54 -20 92 -9 39 -21 97 -27 130 -6 33
-13 67 -16 75 -3 8 -4 19 -3 24 1 4 -3 14 -8 20 -9 11 -39 131 -45 176 -2 23
-35 150 -51 198 -8 23 -10 42 -5 42 15 0 12 47 -3 62 -13 13 -22 49 -33 133
-3 22 -9 42 -13 45 -4 3 -8 14 -8 25 -1 36 -25 140 -34 151 -5 6 -7 19 -3 28
3 9 2 16 -3 16 -11 0 -5 87 6 108 6 11 11 10 25 -3 19 -20 32 -14 22 10 -3 9
-10 13 -16 10 -12 -8 -13 -3 0 29 8 21 6 27 -10 36 -23 12 -33 -8 -13 -29 16
-16 10 -26 -10 -18 -16 6 -48 128 -44 167 2 14 -1 30 -5 36 -5 7 -3 14 7 18
10 3 15 -1 15 -13 0 -10 3 -21 7 -24 10 -11 13 -61 3 -67 -5 -3 -6 -18 -2 -34
6 -22 10 -25 18 -15 16 20 25 61 11 52 -6 -4 -8 0 -4 9 3 9 0 21 -6 27 -8 8
-8 11 1 11 17 0 15 26 -3 43 -10 10 -13 30 -10 68 3 36 0 60 -10 75 -9 14 -12
34 -9 52 3 17 1 54 -5 83 -7 30 -14 75 -17 102 -2 27 -9 58 -14 68 -6 10 -12
31 -14 46 -2 15 -11 77 -20 137 -22 148 -22 359 0 380 8 9 13 20 9 25 -3 5 -1
13 5 16 7 4 7 11 2 18 -5 7 -7 48 -5 92 2 44 5 118 7 165 2 47 7 113 10 148 5
42 4 62 -4 62 -8 0 -8 6 0 20 6 12 8 30 5 41 -4 11 -2 26 5 34 7 8 7 15 1 19
-6 4 -6 18 -1 38 5 17 7 49 3 72 -9 59 -7 100 11 201 9 50 16 97 16 105 0 8 0
24 1 35 3 38 2 70 -4 181 -4 62 -2 158 4 215 6 57 12 136 14 176 2 39 6 76 9
81 3 6 5 21 4 33 0 13 2 49 7 80 6 48 4 58 -10 66 -12 7 -15 17 -10 32 3 11
11 21 16 21 13 0 11 37 -2 63 -9 16 -9 22 0 25 9 3 9 7 0 18 -9 11 -9 21 -2
37 14 28 16 77 4 77 -6 0 -10 8 -10 18 1 9 -2 27 -6 40 -4 13 -3 22 3 22 6 0
9 29 8 75 -2 41 1 75 6 75 5 0 7 45 4 105 -6 94 -4 104 10 98 15 -5 16 -2 9
23 -16 56 -11 115 9 130 13 9 17 20 12 38 -4 15 -2 26 4 26 16 0 12 27 -5 34
-8 3 -15 14 -15 25 0 14 5 19 15 15 9 -4 15 0 15 10 0 9 -4 16 -10 16 -5 0
-10 5 -10 10 0 6 7 10 16 10 14 0 15 9 9 65 -4 41 -3 71 4 78 5 7 9 44 8 82
-1 47 2 70 11 73 6 2 12 11 12 21 0 9 4 21 9 27 5 5 11 29 14 54 2 25 12 70
21 100 10 30 21 80 26 110 10 66 26 124 46 167 8 17 14 38 14 47 0 9 4 16 9
16 5 0 12 15 16 33 10 37 10 46 0 70 -5 11 -3 17 6 17 27 0 40 17 45 60 3 24
13 51 23 59 20 18 43 79 35 92 -3 5 0 9 6 9 7 0 9 8 5 20 -5 14 -2 20 9 20 9
0 16 6 16 13 0 6 18 38 40 70 22 31 40 65 40 75 0 10 11 29 25 42 14 13 25 27
25 32 0 14 61 77 81 83 11 4 19 12 19 18 1 14 40 60 60 71 8 4 26 13 40 21 14
8 35 15 47 15 12 0 35 11 51 25 17 14 35 25 41 25 6 0 11 6 11 13 0 6 14 18
30 25 17 8 28 18 24 23 -3 5 2 9 11 9 9 0 31 15 49 33 26 27 37 32 57 26 30
-7 57 11 78 52 13 26 58 55 69 44 3 -3 14 3 25 12 10 10 21 17 23 16 13 -9 22
-1 17 14 -5 13 -2 15 16 10 14 -3 24 0 28 9 3 8 27 24 54 35 27 12 49 27 49
33 0 10 19 15 83 19 15 1 27 5 27 8 0 3 24 6 53 6 77 1 117 6 117 16 0 5 24
-37 53 -94 71 -140 129 -226 201 -301 20 -21 36 -42 36 -48 0 -5 5 -10 11 -10
6 0 8 7 5 16 -5 14 -4 15 9 4 9 -7 14 -22 13 -34 -2 -11 3 -21 10 -22 6 -1 17
-2 23 -3 5 0 7 -5 4 -11 -6 -9 8 -14 28 -11 4 0 7 -4 7 -10 0 -8 5 -7 15 1 13
11 14 10 9 -4 -4 -10 -1 -16 7 -17 39 -2 74 -11 77 -20 2 -5 7 -7 11 -4 5 2
14 -7 21 -20 7 -14 19 -25 25 -25 7 0 20 -9 30 -20 10 -11 22 -17 28 -13 5 3
18 -5 27 -17 12 -16 28 -24 53 -24 19 -1 33 -4 30 -8 -2 -5 2 -8 9 -9 7 0 22
-3 33 -6 11 -2 40 -6 65 -8 25 -2 79 -9 120 -14 47 -6 79 -6 84 0 6 6 6 9 0 9
-5 0 -2 5 6 10 13 9 13 11 0 19 -10 7 -17 6 -22 -2 -4 -6 -10 -8 -14 -4 -17
17 13 25 57 15 53 -12 99 -4 99 17 0 18 27 19 58 1 30 -16 80 -9 93 15 13 25
74 26 88 2 13 -24 61 -2 62 29 1 17 2 19 6 6 2 -10 11 -18 19 -18 8 0 14 -4
14 -10 0 -5 7 -10 15 -10 10 0 15 10 15 34 l0 34 42 -10 c39 -8 45 -7 64 14
11 13 26 24 33 26 7 1 20 9 28 17 8 8 19 15 24 15 6 0 9 14 7 32 -2 24 -11 36
-33 48 -37 19 -44 27 -38 50 3 12 -2 20 -14 23 -17 5 -17 5 0 6 11 1 21 -7 24
-19 4 -13 14 -20 31 -20 14 0 33 -7 43 -16 23 -20 86 -11 91 13 2 10 16 16 41
18 23 1 45 10 58 23 22 25 41 29 33 8 -7 -18 13 -31 29 -17 18 14 68 7 81 -12
15 -20 63 -11 71 14 9 27 25 24 25 -4 0 -29 7 -37 26 -30 9 3 12 13 8 30 -6
22 -4 23 19 18 19 -5 29 -1 41 17 14 19 18 20 26 8 5 -8 23 -14 43 -13 27 1
42 -6 67 -33 18 -19 35 -32 38 -29 3 2 10 -5 17 -18 6 -12 17 -21 24 -19 6 1
25 -5 41 -13 38 -20 43 -19 35 5 -6 17 -2 20 29 20 25 0 36 -4 36 -15 0 -8 5
-15 10 -15 6 0 10 -6 10 -14 0 -16 34 -31 50 -21 5 3 10 12 10 20 0 16 35 29
50 20 5 -3 10 1 10 9 0 24 29 7 36 -20 4 -14 14 -24 24 -24 11 0 22 -4 25 -10
11 -17 45 -11 45 8 0 14 2 14 9 3 5 -8 7 -19 5 -26 -3 -7 9 -11 31 -12 33 -1
48 11 23 19 -8 3 -4 12 10 26 12 12 22 18 22 13 0 -15 32 -22 45 -11 9 8 15 8
20 0 8 -13 65 -13 65 0 0 6 11 10 25 10 20 0 25 6 31 36 4 20 2 39 -3 43 -22
15 -42 56 -37 77 4 16 0 24 -14 28 -11 4 -23 18 -26 31 -4 14 -14 25 -23 25
-34 0 2 18 50 25 34 5 47 4 47 -5 0 -7 7 -10 15 -6 8 3 15 1 15 -4 0 -6 7 -10
15 -10 8 0 15 -4 15 -10 0 -5 5 -10 11 -10 6 0 9 6 6 14 -4 9 3 16 16 20 27 7
67 -3 67 -16 0 -6 7 -8 14 -5 9 4 17 -1 21 -12 3 -12 15 -18 36 -18 21 0 28 4
25 14 -4 9 3 13 19 13 14 0 25 6 26 13 0 9 2 9 6 -1 9 -23 51 -33 95 -23 43
10 81 46 73 69 -6 18 52 -24 64 -46 5 -9 13 -14 17 -10 6 7 7 77 1 133 -1 11
4 20 13 20 17 0 16 51 -1 119 -6 21 -8 45 -5 53 4 9 2 11 -5 7 -7 -4 -10 -1
-7 7 2 7 -1 24 -8 37 -7 14 -10 31 -7 40 4 9 2 13 -4 9 -6 -4 -13 -1 -16 6 -4
10 2 13 19 9 13 -2 24 -10 24 -17 0 -8 7 -15 16 -17 14 -3 74 -159 74 -194 0
-8 4 -14 9 -14 6 0 8 10 5 23 -38 179 -33 179 61 -2 38 -73 55 -97 73 -99 30
-5 28 17 -8 98 -15 35 -26 68 -24 72 3 4 1 8 -4 8 -12 0 -52 66 -52 86 0 8 -4
14 -10 14 -12 0 -60 70 -60 87 0 19 8 16 36 -12z"/>
<path d="M12105 12939 c4 -5 -7 -6 -24 -3 -22 5 -32 2 -36 -8 -5 -12 -20 -14
-66 -12 -39 3 -59 0 -59 -7 0 -6 -9 -9 -20 -6 -12 3 -24 -1 -31 -11 -7 -12
-12 -14 -15 -4 -7 15 -34 16 -34 0 0 -6 -3 -9 -6 -6 -3 4 -19 2 -35 -2 -17 -5
-31 -5 -34 1 -11 16 -43 10 -50 -10 -7 -22 -42 -34 -52 -19 -4 7 -1 8 7 3 9
-5 11 -4 6 3 -5 9 -14 8 -35 -3 -15 -7 -38 -11 -50 -8 -11 3 -28 0 -35 -7 -8
-6 -23 -10 -34 -8 -10 2 -26 -3 -36 -11 -9 -7 -31 -17 -48 -20 -47 -10 -89
-73 -82 -121 4 -19 15 -41 25 -49 10 -7 19 -19 19 -27 0 -7 8 -13 18 -12 9 0
45 -2 80 -6 34 -3 62 -1 62 3 0 5 21 7 48 6 26 -1 60 2 76 6 20 6 32 5 37 -3
4 -6 17 -8 30 -5 13 3 29 1 36 -5 7 -6 13 -7 13 -3 0 4 7 2 15 -5 8 -7 15 -8
15 -3 0 5 18 8 40 6 22 -2 40 1 40 6 0 5 9 7 19 4 10 -3 29 1 41 7 15 8 20 8
16 1 -8 -12 -2 -14 74 -16 30 0 72 -7 93 -14 34 -12 39 -11 55 9 15 18 21 20
45 11 17 -7 27 -7 27 -1 0 6 7 10 15 10 8 0 15 -7 15 -15 0 -8 9 -15 20 -15
11 0 20 4 20 8 0 5 7 9 15 9 8 0 15 -4 15 -8 0 -4 8 -6 18 -4 9 1 16 7 15 11
-1 5 14 9 32 9 18 0 31 -3 28 -7 -4 -8 12 -12 31 -9 4 1 15 -4 24 -11 13 -11
14 -11 7 2 -7 12 -6 13 7 3 8 -7 17 -11 19 -9 2 2 17 6 32 10 20 5 27 3 22 -4
-5 -8 1 -11 16 -10 56 5 110 0 104 -10 -3 -5 -3 -10 2 -11 4 0 28 -1 52 -3 25
-1 46 -7 49 -14 2 -7 9 -9 15 -5 20 12 61 12 76 0 12 -10 13 -9 6 3 -4 8 2 6
16 -6 14 -12 35 -20 52 -18 15 2 27 -1 27 -5 0 -7 27 -13 115 -25 22 -3 65
-30 65 -40 0 -6 4 -4 10 4 7 12 13 12 33 1 14 -7 30 -11 35 -7 6 3 18 -1 26
-10 9 -8 16 -12 16 -8 0 5 5 3 12 -4 7 -7 25 -12 40 -12 15 0 28 -4 28 -10 0
-5 20 -10 45 -10 25 0 45 -4 45 -8 0 -5 18 -9 39 -9 35 0 41 4 60 38 12 21 17
40 12 43 -5 3 -8 17 -6 31 1 14 0 23 -3 20 -7 -7 -62 46 -62 60 0 6 -11 17
-24 25 -14 7 -22 18 -19 26 3 9 -2 11 -18 7 -14 -4 -20 -2 -16 4 4 6 -16 21
-43 34 -28 13 -53 32 -56 41 -3 10 -8 17 -12 17 -25 -4 -52 3 -47 11 3 6 -3
10 -14 10 -11 0 -23 5 -26 10 -4 6 -10 8 -13 6 -4 -2 -25 4 -47 14 -22 11 -50
19 -62 20 -13 0 -23 5 -23 10 0 6 -7 10 -15 10 -9 0 -27 8 -41 17 -22 14 -27
14 -35 2 -6 -10 -9 -8 -9 11 0 20 -2 22 -10 10 -5 -8 -10 -10 -10 -5 0 6 -8
11 -17 12 -10 1 -39 3 -65 4 -27 2 -48 7 -48 12 0 4 -4 5 -10 2 -6 -4 -7 1 -3
11 5 13 3 15 -8 8 -19 -12 -62 -13 -70 -1 -4 5 -24 10 -47 10 -22 1 -38 5 -36
9 7 11 -34 20 -53 10 -10 -5 -31 -7 -48 -5 -16 2 -56 6 -87 9 -32 3 -58 10
-58 14 0 5 -9 8 -20 7 -11 -1 -20 -7 -20 -14 0 -18 -19 -16 -26 2 -7 17 -55
20 -71 4 -8 -8 -19 -6 -41 5 -19 10 -33 12 -37 6 -8 -13 -27 -13 -62 2 -38 15
-54 18 -48 7z"/>
<path d="M8950 12903 c-30 -15 -57 -17 -65 -3 -4 6 -18 4 -37 -6 -22 -11 -33
-13 -41 -5 -16 16 -64 13 -71 -4 -7 -18 -26 -20 -26 -2 0 7 -9 13 -20 14 -11
1 -20 -2 -20 -7 0 -4 -26 -11 -57 -14 -32 -3 -71 -7 -88 -9 -16 -2 -38 0 -48
5 -19 10 -60 1 -53 -10 2 -4 -14 -8 -36 -9 -23 0 -43 -5 -47 -10 -8 -12 -51
-11 -70 1 -11 7 -13 5 -8 -8 4 -10 3 -15 -3 -11 -6 3 -10 2 -10 -2 0 -5 -21
-10 -47 -12 -27 -1 -56 -3 -65 -4 -10 -1 -18 -6 -18 -12 0 -5 -5 -3 -10 5 -8
12 -10 10 -10 -10 0 -19 -3 -21 -9 -11 -8 12 -13 12 -35 -2 -14 -9 -32 -17
-41 -17 -8 0 -15 -4 -15 -10 0 -5 -10 -10 -22 -10 -13 -1 -41 -9 -63 -20 -22
-10 -43 -16 -47 -14 -3 2 -9 0 -13 -6 -3 -5 -15 -10 -26 -10 -11 0 -17 -4 -14
-10 5 -8 -22 -15 -47 -11 -4 0 -9 -7 -12 -17 -3 -9 -28 -28 -56 -41 -27 -13
-47 -28 -43 -34 4 -6 -2 -8 -16 -4 -16 4 -21 2 -18 -7 3 -8 -5 -19 -19 -26
-13 -8 -24 -19 -24 -25 0 -14 -55 -67 -62 -60 -3 3 -4 -6 -3 -20 2 -14 -1 -28
-6 -31 -5 -3 0 -22 12 -43 19 -34 25 -38 60 -38 21 0 39 4 39 9 0 4 20 8 45 8
25 0 45 5 45 10 0 6 13 10 28 10 15 0 33 5 40 12 7 7 12 9 12 4 0 -4 7 0 16 8
8 9 20 13 26 10 5 -4 21 0 35 7 20 11 26 11 33 -1 6 -8 10 -10 10 -4 0 10 43
37 65 40 88 12 115 18 115 25 0 4 12 7 28 5 16 -2 37 6 51 18 14 12 20 14 16
6 -7 -12 -6 -13 6 -3 15 12 56 12 76 0 6 -4 13 -2 15 5 3 7 24 13 49 14 24 2
48 3 52 3 5 1 5 6 2 11 -6 10 48 15 104 10 15 -1 21 2 16 10 -5 7 2 9 22 4 15
-4 30 -8 32 -10 2 -2 11 2 19 9 13 10 14 9 7 -3 -7 -13 -6 -13 7 -2 9 7 20 12
24 11 19 -3 35 1 31 9 -3 4 10 7 28 7 18 0 33 -4 32 -9 -1 -4 6 -10 16 -11 9
-2 17 0 17 4 0 4 7 8 15 8 8 0 15 -4 15 -9 0 -4 9 -8 20 -8 11 0 20 7 20 15 0
8 7 15 15 15 8 0 15 -4 15 -10 0 -6 10 -6 27 1 24 9 30 7 45 -11 16 -20 21
-21 55 -9 21 7 63 14 93 14 76 2 82 4 74 16 -4 7 1 7 16 -1 12 -6 31 -10 41
-7 10 3 19 1 19 -4 0 -5 18 -8 40 -6 22 2 40 -1 40 -6 0 -5 7 -4 15 3 8 7 15
9 15 5 0 -4 6 -3 13 3 7 6 23 8 36 5 13 -3 26 -1 30 5 5 8 17 9 37 3 16 -4 50
-7 77 -6 26 1 47 -1 47 -6 0 -4 28 -6 63 -3 34 4 70 6 80 6 9 -1 17 5 17 12 0
8 9 20 19 27 10 8 21 30 25 49 7 48 -35 111 -82 121 -17 3 -39 13 -48 20 -10
8 -26 13 -36 11 -11 -2 -26 2 -34 8 -7 7 -24 10 -35 7 -12 -3 -35 1 -50 8 -21
11 -30 12 -35 3 -5 -7 -3 -8 6 -3 8 5 11 4 7 -3 -10 -15 -45 -3 -52 19 -7 20
-39 26 -50 10 -3 -6 -17 -6 -34 -1 -16 4 -32 6 -35 2 -3 -3 -6 0 -6 6 0 16
-27 15 -34 0 -3 -10 -8 -8 -15 4 -7 10 -19 14 -31 11 -11 -3 -20 0 -20 6 0 7
-20 10 -59 7 -46 -2 -61 0 -66 12 -4 10 -14 13 -36 8 -16 -3 -28 -2 -25 2 8
13 -16 10 -44 -5z"/>
<path d="M9795 12432 c-17 -9 -32 -18 -34 -19 -11 -7 0 -78 14 -93 8 -9 15
-23 15 -32 0 -8 9 -25 20 -38 11 -13 20 -30 20 -40 0 -9 4 -20 9 -25 6 -6 12
-23 14 -40 2 -16 10 -29 16 -27 6 1 11 -7 11 -18 0 -12 7 -34 15 -50 8 -16 12
-37 8 -46 -4 -11 -3 -15 4 -11 11 7 28 -37 24 -60 -1 -7 2 -13 8 -13 9 0 27
-102 23 -127 -2 -7 2 -13 8 -13 6 0 9 -4 5 -9 -3 -5 -1 -12 4 -16 5 -3 9 -13
9 -23 0 -9 3 -44 7 -77 11 -88 11 -138 1 -152 -5 -8 -4 -13 2 -13 7 0 9 -17 6
-46 -3 -34 -1 -43 9 -38 9 5 9 4 0 -7 -15 -16 -17 -33 -3 -24 6 3 10 2 10 -4
0 -5 -5 -11 -12 -13 -7 -3 -9 -11 -3 -24 4 -10 7 -23 5 -29 -1 -5 -5 -37 -7
-70 -2 -33 -5 -66 -5 -72 -1 -7 -5 -13 -10 -13 -5 0 -4 -8 1 -18 6 -11 6 -24
0 -33 -5 -7 -9 -28 -9 -46 0 -17 -6 -34 -12 -36 -8 -3 -8 -6 -2 -6 10 -1 -20
-111 -52 -189 -8 -18 -14 -43 -14 -55 0 -13 -5 -28 -12 -35 -7 -7 -9 -12 -4
-12 4 0 1 -12 -7 -27 -8 -16 -21 -41 -28 -58 -8 -16 -17 -33 -21 -36 -5 -3 -9
-17 -10 -32 -1 -15 -6 -27 -10 -27 -4 0 -8 -9 -8 -19 0 -10 -7 -22 -16 -25 -9
-3 -14 -12 -11 -19 4 -12 -2 -27 -58 -134 -7 -13 -15 -20 -18 -16 -7 6 -11
-19 -8 -45 1 -7 -5 -19 -14 -28 -8 -8 -15 -24 -15 -35 0 -10 -5 -19 -12 -19
-6 0 -9 -3 -5 -6 3 -4 0 -13 -8 -21 -8 -8 -15 -24 -15 -35 0 -29 -30 -89 -41
-82 -6 3 -7 -5 -4 -19 4 -15 1 -30 -9 -40 -9 -8 -16 -19 -16 -23 0 -11 -44
-99 -54 -105 -5 -4 -5 -12 -2 -18 4 -6 2 -11 -4 -11 -6 0 -8 -4 -5 -10 3 -5 2
-10 -3 -10 -6 0 -13 -17 -17 -37 -3 -21 -15 -63 -25 -93 -11 -30 -21 -75 -24
-100 -2 -25 -8 -53 -11 -62 -4 -10 -4 -26 0 -35 4 -10 9 -25 10 -33 4 -42 19
-82 32 -87 7 -3 20 -18 29 -34 8 -16 20 -29 27 -29 7 0 24 -8 37 -17 26 -19
100 -25 137 -12 12 5 50 11 85 14 35 3 64 10 66 15 2 6 11 6 20 1 9 -4 31 -7
47 -6 17 0 35 -3 42 -7 6 -5 14 -5 18 2 8 12 45 13 45 1 0 -5 13 -12 29 -16
16 -3 32 -13 35 -22 4 -8 13 -13 20 -10 8 3 16 2 18 -3 2 -4 14 -10 28 -12 14
-1 28 -7 32 -13 5 -6 11 -6 19 2 8 8 19 9 36 2 14 -5 29 -7 34 -3 5 3 9 0 9
-6 0 -6 5 -8 10 -5 6 3 10 1 10 -5 0 -7 6 -10 13 -7 6 2 23 -1 37 -8 14 -6 42
-11 62 -10 26 1 39 -3 43 -14 5 -13 7 -14 15 -1 7 10 10 11 10 3 0 -7 5 -13
11 -13 5 0 8 4 5 8 -3 5 8 6 25 4 18 -3 29 0 29 8 0 7 8 9 19 5 11 -3 22 -1
26 5 4 6 19 16 33 22 33 14 28 13 82 22 25 5 47 12 50 17 3 4 30 15 60 23 30
8 73 23 95 34 26 13 44 17 51 11 7 -6 15 -5 22 3 9 11 88 14 195 8 5 0 6 -4 3
-9 -4 -5 5 -8 18 -7 14 2 24 -2 23 -8 -1 -6 13 -12 32 -14 22 -2 35 -10 38
-21 6 -25 68 -20 103 9 23 19 28 31 27 64 -1 27 -7 45 -19 54 -10 7 -15 18
-12 24 4 7 2 8 -4 4 -8 -4 -16 3 -22 19 -7 18 -15 25 -25 21 -18 -6 -30 10
-13 18 7 2 0 4 -17 4 -16 -1 -41 4 -54 11 -13 8 -39 15 -57 17 -18 1 -42 7
-52 13 -11 6 -22 8 -25 4 -3 -3 -43 -6 -89 -7 -69 -1 -93 -6 -139 -29 -31 -15
-64 -24 -73 -21 -9 3 -16 1 -16 -5 0 -6 -6 -8 -13 -5 -16 6 -69 -13 -79 -28
-5 -9 -11 -8 -22 1 -9 8 -16 9 -16 4 0 -5 -17 -15 -37 -21 -66 -20 -88 -26
-93 -27 -3 0 -11 -4 -17 -8 -8 -5 -13 -4 -13 2 0 6 -7 11 -15 11 -8 0 -15 -5
-15 -11 0 -8 -4 -8 -12 -2 -13 11 -32 13 -80 13 -16 0 -28 4 -28 10 0 6 -9 6
-26 0 -33 -13 -31 -13 -37 9 -3 14 -12 19 -31 17 -14 -2 -31 3 -37 10 -5 7
-20 11 -32 9 -11 -3 -29 3 -39 11 -9 9 -25 14 -34 10 -9 -3 -23 -1 -30 5 -11
9 -14 9 -14 0 0 -7 -9 -3 -21 7 -11 11 -29 18 -39 15 -11 -3 -32 -1 -48 5 -21
7 -53 6 -112 -4 -46 -8 -85 -12 -88 -9 -3 3 -14 -2 -24 -12 -10 -9 -18 -13
-18 -8 0 4 -7 2 -14 -5 -8 -6 -25 -11 -38 -9 -13 1 -34 -3 -48 -8 -20 -9 -29
-7 -43 5 -10 9 -14 18 -8 20 6 2 7 12 1 27 -5 13 -7 34 -5 47 2 13 6 44 9 69
6 52 15 79 25 79 3 0 7 12 8 26 1 24 9 47 34 96 5 10 9 24 9 32 0 7 7 19 15
26 8 7 13 16 10 20 -3 4 4 19 15 33 11 14 20 29 20 34 0 4 11 25 25 46 14 20
23 37 20 37 -3 0 0 10 7 23 6 12 13 28 14 35 1 8 9 21 17 30 8 10 18 28 22 42
4 14 19 40 33 58 13 17 21 32 18 32 -4 0 -1 10 6 23 7 12 11 26 10 30 -1 5 7
21 18 37 11 16 26 44 32 62 6 18 19 42 28 53 10 11 16 28 15 37 -2 10 1 20 6
23 14 9 55 105 58 138 1 4 10 16 20 26 11 11 22 37 26 57 3 21 10 41 16 44 5
4 11 22 13 42 2 19 7 41 12 49 5 8 10 25 12 39 2 13 9 28 15 32 9 6 8 8 -2 8
-10 0 -11 3 -2 14 12 14 23 61 23 101 0 11 6 40 13 65 7 25 11 66 9 92 -2 26
1 50 6 53 5 3 6 31 3 63 -7 75 -7 126 1 156 3 14 1 28 -8 35 -10 8 -12 21 -6
46 6 28 5 35 -7 35 -13 0 -15 10 -10 60 3 33 1 63 -4 66 -5 3 -7 10 -3 15 3 5
-4 24 -15 43 -11 18 -18 35 -16 38 3 3 -1 24 -9 46 -9 23 -13 42 -9 42 3 0 -2
11 -11 25 -12 18 -13 25 -4 25 10 0 10 3 -1 9 -7 5 -10 14 -7 20 4 6 2 11 -5
11 -7 0 -9 3 -6 7 4 3 0 15 -10 25 -9 10 -13 18 -10 18 9 0 -15 63 -30 78 -7
7 -13 24 -13 37 0 13 -7 28 -15 32 -8 5 -16 19 -18 32 -2 12 -8 26 -13 29 -5
4 -16 20 -24 37 -8 16 -25 39 -37 51 -13 12 -23 26 -23 32 0 6 -9 16 -20 22
-11 6 -20 8 -20 4 0 -3 -6 -2 -13 4 -9 8 -21 6 -42 -6z"/>
<path d="M11946 11899 c4 -7 0 -9 -12 -5 -11 3 -34 2 -52 -3 -20 -6 -34 -6
-38 0 -3 5 -11 6 -17 2 -7 -4 -16 -8 -22 -10 -5 -1 -20 -4 -32 -7 -13 -3 -32
-8 -44 -11 -12 -2 -26 -8 -33 -13 -6 -5 -30 -14 -53 -22 -24 -7 -43 -17 -43
-22 0 -4 -6 -8 -14 -8 -7 0 -32 -18 -55 -40 -22 -22 -44 -40 -49 -40 -12 -1
-52 -38 -52 -49 0 -6 -5 -11 -11 -11 -5 0 -8 -3 -6 -7 7 -11 -19 -33 -29 -25
-4 4 -5 0 -1 -9 3 -11 -6 -27 -27 -45 -18 -16 -31 -35 -28 -42 2 -6 -1 -12 -7
-12 -6 0 -11 -7 -11 -15 0 -8 -5 -15 -11 -15 -6 0 -8 -9 -3 -22 4 -13 8 -31 9
-40 2 -25 8 -29 54 -33 25 -2 47 3 58 12 10 8 11 11 3 7 -8 -5 14 20 50 53 35
34 68 59 74 56 5 -4 7 1 3 10 -3 10 -3 17 1 17 11 0 62 46 62 57 0 5 11 16 25
23 14 7 25 17 25 22 0 4 7 8 15 8 8 0 15 6 15 14 0 13 65 43 83 38 4 -1 7 2 7
7 0 11 26 9 37 -3 4 -4 1 -11 -7 -16 -11 -7 -11 -11 -1 -24 10 -12 11 -19 2
-30 -7 -8 -9 -25 -6 -38 3 -13 8 -31 10 -39 8 -36 18 -59 25 -59 5 0 12 -9 15
-20 3 -11 12 -20 19 -20 7 0 22 -11 32 -25 10 -14 24 -25 30 -25 7 0 14 -6 17
-13 2 -7 20 -14 38 -15 18 -1 38 -7 45 -13 7 -6 20 -6 37 0 14 6 37 8 51 5 36
-6 97 27 138 75 32 38 72 134 60 145 -11 12 -32 6 -32 -9 0 -8 -7 -15 -15 -15
-17 0 -10 24 14 51 35 39 41 49 35 62 -7 19 16 34 26 17 4 -7 17 -10 28 -8 12
3 31 -1 43 -10 20 -14 22 -14 17 0 -4 9 0 15 8 15 8 0 14 -4 14 -9 0 -4 11 -8
25 -8 15 0 39 -7 56 -15 16 -9 33 -13 38 -10 5 2 12 -2 15 -11 5 -12 10 -13
19 -5 10 8 19 7 34 -4 11 -8 39 -17 62 -21 23 -4 44 -11 47 -15 3 -5 10 -6 16
-3 5 4 20 2 31 -3 12 -6 40 -16 62 -23 22 -7 48 -19 57 -27 12 -10 22 -12 34
-5 9 5 24 7 34 5 14 -4 40 29 36 48 0 3 5 13 12 22 11 13 10 17 -7 27 -12 6
-21 17 -21 25 0 8 -14 17 -34 21 -19 3 -37 12 -40 20 -3 8 -12 14 -20 14 -8 0
-46 16 -86 36 -39 20 -74 34 -77 30 -4 -3 -15 1 -25 11 -10 9 -18 13 -18 10 0
-3 -16 1 -35 9 -19 7 -48 14 -65 14 -19 0 -30 5 -30 14 0 9 -12 13 -42 11 -24
-1 -54 2 -68 6 -38 12 -106 20 -204 25 -48 2 -92 7 -97 10 -5 3 -9 0 -9 -6 0
-6 -3 -9 -7 -7 -16 10 -84 17 -79 9 3 -5 -15 -6 -39 -2 -24 4 -48 3 -54 -3 -5
-5 -11 -5 -15 2 -4 6 -12 11 -17 11 -6 0 -7 -5 -3 -11z"/>
<path d="M8907 11803 c-1 -1 -51 -4 -112 -7 -60 -3 -148 -12 -195 -22 -47 -9
-106 -17 -132 -17 -33 0 -48 -5 -48 -14 0 -8 -12 -13 -30 -13 -17 0 -46 -7
-65 -14 -19 -8 -35 -12 -35 -9 0 3 -8 -1 -18 -10 -10 -10 -21 -14 -25 -11 -3
4 -38 -10 -77 -30 -40 -20 -78 -36 -86 -36 -8 0 -17 -6 -20 -14 -3 -8 -21 -17
-40 -20 -20 -4 -34 -13 -34 -21 0 -8 -9 -19 -21 -25 -14 -8 -17 -15 -10 -23 5
-7 10 -16 12 -22 7 -33 24 -56 39 -52 10 2 25 0 34 -5 12 -7 22 -5 34 5 9 8
35 20 57 27 22 7 50 17 62 23 11 5 26 7 31 3 6 -3 13 -2 16 3 3 4 24 11 47 15
23 4 51 13 62 21 15 11 24 12 34 4 9 -8 14 -7 19 5 3 9 10 13 15 11 5 -3 22 1
38 10 17 8 41 15 56 15 14 0 25 4 25 8 0 5 6 9 14 9 8 0 12 -6 9 -13 -4 -10 2
-11 29 -2 18 6 41 15 50 19 13 6 23 3 38 -13 23 -25 25 -34 9 -43 -15 -10 14
-135 31 -135 5 0 12 -9 15 -20 3 -11 12 -20 19 -20 7 0 22 -11 32 -25 10 -14
24 -25 30 -25 7 0 14 -6 17 -13 2 -7 20 -14 38 -15 18 -1 38 -7 45 -13 7 -6
20 -6 37 0 14 6 37 8 51 5 36 -6 97 27 138 75 32 38 72 134 60 145 -11 12 -32
6 -32 -9 0 -8 -7 -15 -15 -15 -17 0 -10 24 14 51 35 39 41 49 35 62 -3 8 -1
18 5 22 6 3 11 2 11 -2 0 -5 20 -14 45 -21 28 -7 45 -18 45 -27 0 -8 7 -15 15
-15 8 0 15 -4 15 -8 0 -5 11 -15 25 -22 14 -7 25 -18 25 -23 0 -11 51 -57 62
-57 4 0 4 -7 1 -17 -4 -9 -2 -14 3 -10 6 3 39 -22 74 -56 36 -33 58 -58 50
-53 -8 4 -7 1 3 -7 11 -9 33 -14 58 -12 46 4 52 8 54 33 1 9 5 27 9 40 5 13 3
22 -3 22 -6 0 -11 7 -11 15 0 8 -5 15 -11 15 -6 0 -9 6 -7 12 3 7 -10 26 -28
42 -21 18 -30 34 -27 44 4 8 2 13 -3 10 -11 -7 -35 17 -27 26 4 3 1 6 -5 6 -7
0 -12 5 -12 11 0 11 -40 48 -52 49 -5 0 -27 18 -49 40 -23 22 -48 40 -55 40
-8 0 -14 4 -14 8 0 5 -19 15 -42 22 -24 8 -48 17 -54 22 -7 5 -21 11 -33 13
-12 3 -31 8 -43 11 -13 3 -30 7 -38 9 -8 2 -15 4 -15 6 0 1 -11 3 -25 5 -14 1
-45 5 -70 9 -43 6 -170 12 -173 8z"/>
<path d="M11544 8336 c-3 -9 -17 -16 -30 -16 -13 0 -24 -5 -24 -10 0 -6 -11
-8 -26 -4 -18 5 -29 1 -38 -11 -8 -12 -15 -14 -20 -7 -7 11 -66 -6 -66 -20 0
-4 -6 -5 -14 -2 -8 3 -17 1 -20 -4 -3 -5 -21 -8 -41 -5 -19 2 -35 0 -35 -4 0
-5 -23 -9 -51 -10 -35 -2 -56 -8 -66 -20 -8 -10 -12 -12 -8 -5 3 7 0 12 -8 12
-8 0 -17 -6 -20 -14 -4 -10 -16 -13 -37 -9 -19 3 -30 1 -26 -5 9 -14 -36 -23
-51 -10 -10 8 -18 7 -31 -4 -26 -23 -46 -33 -38 -20 4 7 1 12 -8 12 -9 0 -15
-6 -13 -12 3 -16 -44 -23 -53 -8 -5 8 -11 8 -21 -3 -18 -17 -89 -30 -89 -15 0
7 -4 7 -13 -1 -8 -6 -40 -13 -73 -17 -32 -3 -79 -7 -104 -10 -25 -3 -56 -6
-70 -7 -14 -1 -31 -6 -37 -10 -8 -5 -13 -4 -13 3 0 6 -11 8 -26 6 -32 -6 -134
-8 -194 -3 -25 2 -53 -1 -62 -5 -12 -6 -18 -5 -18 2 0 6 -8 10 -17 8 -10 -1
-24 2 -32 7 -10 5 -16 4 -19 -3 -5 -15 -42 -16 -42 -2 0 6 -8 5 -20 -2 -17
-11 -22 -10 -30 2 -6 10 -10 11 -10 3 0 -9 -7 -10 -22 -4 -13 4 -36 6 -51 4
-16 -2 -27 0 -24 4 3 4 -37 9 -87 10 -51 1 -118 9 -150 17 -31 8 -63 13 -71 9
-9 -3 -23 1 -32 8 -8 8 -26 12 -39 11 -13 -2 -24 1 -24 7 0 6 -5 11 -11 11 -6
0 -7 -6 -2 -12 4 -8 -3 -6 -17 3 -14 9 -60 19 -106 23 l-81 7 -27 -32 c-15
-18 -24 -35 -19 -38 4 -3 8 -12 9 -18 1 -7 2 -17 3 -21 2 -13 51 -33 89 -38
19 -2 50 -12 70 -21 20 -9 40 -15 45 -15 4 1 7 -3 7 -9 0 -6 8 -8 19 -4 10 3
31 1 47 -6 16 -6 47 -13 69 -15 22 -3 47 -12 56 -20 19 -17 33 -19 23 -2 -4 7
-3 8 4 4 6 -4 31 -9 54 -12 24 -3 51 -7 61 -8 10 -1 22 -8 27 -15 6 -10 15
-11 36 -4 29 10 82 -2 96 -22 4 -5 10 -2 14 8 3 9 10 14 15 11 18 -11 56 -16
154 -19 55 -2 102 -5 105 -6 3 -1 79 -3 170 -4 91 -2 180 -5 198 -7 18 -2 35
-1 38 4 3 4 16 2 30 -4 20 -9 27 -9 34 1 5 9 17 11 34 7 30 -7 108 3 101 14
-5 9 39 5 55 -5 6 -4 18 -1 27 7 13 10 17 10 20 1 6 -18 23 -16 23 1 0 11 7
13 31 6 23 -7 31 -5 35 5 4 8 20 14 37 15 29 0 75 6 87 10 3 1 16 3 30 5 48 4
51 5 45 15 -4 6 6 7 25 4 20 -5 36 -2 48 8 9 9 25 14 34 13 10 -2 17 0 17 3
-3 19 2 25 10 14 7 -11 12 -10 27 5 11 11 42 26 69 33 28 7 57 19 65 25 8 7
20 10 27 8 6 -2 23 3 37 13 14 9 26 13 26 9 0 -4 11 0 25 9 14 9 25 13 25 10
0 -4 9 1 20 11 11 10 20 14 20 10 0 -5 9 1 21 13 11 12 25 19 31 16 6 -4 9 -1
6 7 -3 8 3 27 13 43 16 26 16 31 3 40 -8 6 -16 21 -17 34 0 12 -4 23 -7 23 -3
1 -27 3 -55 4 -27 2 -58 6 -67 10 -12 5 -20 2 -24 -9z"/>
</g>
</svg>
